<svg width="398" height="88" viewBox="0 0 398 88" fill="none" xmlns="http://www.w3.org/2000/svg">
<path d="M14.912 33.84V42.928H29.568V51.376H14.912V61.232H31.488V70H3.968V25.072H31.488V33.84H14.912ZM60.993 70L54.145 60.08L48.385 70H36.545L48.321 51.76L36.225 34.288H48.513L55.361 44.144L61.121 34.288H72.961L60.993 52.272L73.281 70H60.993ZM89.722 39.344C90.7887 37.68 92.2607 36.336 94.138 35.312C96.0153 34.288 98.2127 33.776 100.73 33.776C103.674 33.776 106.341 34.5227 108.73 36.016C111.119 37.5093 112.997 39.6427 114.362 42.416C115.77 45.1893 116.474 48.4107 116.474 52.08C116.474 55.7493 115.77 58.992 114.362 61.808C112.997 64.5813 111.119 66.736 108.73 68.272C106.341 69.7653 103.674 70.512 100.73 70.512C98.2553 70.512 96.058 70 94.138 68.976C92.2607 67.952 90.7887 66.6293 89.722 65.008V87.024H78.778V34.288H89.722V39.344ZM105.338 52.08C105.338 49.3493 104.57 47.216 103.034 45.68C101.541 44.1013 99.6847 43.312 97.466 43.312C95.29 43.312 93.434 44.1013 91.898 45.68C90.4047 47.2587 89.658 49.4133 89.658 52.144C89.658 54.8747 90.4047 57.0293 91.898 58.608C93.434 60.1867 95.29 60.976 97.466 60.976C99.642 60.976 101.498 60.1867 103.034 58.608C104.57 56.9867 105.338 54.8107 105.338 52.08ZM134.439 22.64V70H123.495V22.64H134.439ZM141.474 52.08C141.474 48.4107 142.157 45.1893 143.522 42.416C144.93 39.6427 146.829 37.5093 149.218 36.016C151.608 34.5227 154.274 33.776 157.218 33.776C159.736 33.776 161.933 34.288 163.81 35.312C165.73 36.336 167.202 37.68 168.226 39.344V34.288H179.17V70H168.226V64.944C167.16 66.608 165.666 67.952 163.746 68.976C161.869 70 159.672 70.512 157.154 70.512C154.253 70.512 151.608 69.7653 149.218 68.272C146.829 66.736 144.93 64.5813 143.522 61.808C142.157 58.992 141.474 55.7493 141.474 52.08ZM168.226 52.144C168.226 49.4133 167.458 47.2587 165.922 45.68C164.429 44.1013 162.594 43.312 160.418 43.312C158.242 43.312 156.386 44.1013 154.85 45.68C153.357 47.216 152.61 49.3493 152.61 52.08C152.61 54.8107 153.357 56.9867 154.85 58.608C156.386 60.1867 158.242 60.976 160.418 60.976C162.594 60.976 164.429 60.1867 165.922 58.608C167.458 57.0293 168.226 54.8747 168.226 52.144ZM193.872 30.576C191.952 30.576 190.373 30.0213 189.136 28.912C187.941 27.76 187.344 26.352 187.344 24.688C187.344 22.9813 187.941 21.5733 189.136 20.464C190.373 19.312 191.952 18.736 193.872 18.736C195.749 18.736 197.285 19.312 198.48 20.464C199.717 21.5733 200.336 22.9813 200.336 24.688C200.336 26.352 199.717 27.76 198.48 28.912C197.285 30.0213 195.749 30.576 193.872 30.576ZM199.312 34.288V70H188.368V34.288H199.312ZM230.283 33.904C234.464 33.904 237.792 35.2693 240.267 38C242.784 40.688 244.043 44.4 244.043 49.136V70H233.163V50.608C233.163 48.2187 232.544 46.3627 231.307 45.04C230.07 43.7173 228.406 43.056 226.315 43.056C224.224 43.056 222.56 43.7173 221.323 45.04C220.086 46.3627 219.467 48.2187 219.467 50.608V70H208.523V34.288H219.467V39.024C220.576 37.4453 222.07 36.208 223.947 35.312C225.824 34.3733 227.936 33.904 230.283 33.904ZM286.592 51.568C286.592 52.592 286.528 53.6587 286.4 54.768H261.632C261.803 56.9867 262.507 58.6933 263.744 59.888C265.024 61.04 266.581 61.616 268.416 61.616C271.147 61.616 273.045 60.464 274.112 58.16H285.76C285.163 60.5067 284.075 62.6187 282.496 64.496C280.96 66.3733 279.019 67.8453 276.672 68.912C274.325 69.9787 271.701 70.512 268.8 70.512C265.301 70.512 262.187 69.7653 259.456 68.272C256.725 66.7787 254.592 64.6453 253.056 61.872C251.52 59.0987 250.752 55.856 250.752 52.144C250.752 48.432 251.499 45.1893 252.992 42.416C254.528 39.6427 256.661 37.5093 259.392 36.016C262.123 34.5227 265.259 33.776 268.8 33.776C272.256 33.776 275.328 34.5013 278.016 35.952C280.704 37.4027 282.795 39.472 284.288 42.16C285.824 44.848 286.592 47.984 286.592 51.568ZM275.392 48.688C275.392 46.8107 274.752 45.3173 273.472 44.208C272.192 43.0987 270.592 42.544 268.672 42.544C266.837 42.544 265.28 43.0773 264 44.144C262.763 45.2107 261.995 46.7253 261.696 48.688H275.392ZM304.589 40.24C305.869 38.2773 307.469 36.7413 309.389 35.632C311.309 34.48 313.443 33.904 315.789 33.904V45.488H312.781C310.051 45.488 308.003 46.0853 306.637 47.28C305.272 48.432 304.589 50.48 304.589 53.424V70H293.645V34.288H304.589V40.24Z" fill="black"/>
<rect x="333" y="33.9119" width="65" height="17.513" fill="#FF8830"/>
<rect x="374.425" y="10" width="65" height="17.513" transform="rotate(90 374.425 10)" fill="#FF8830"/>
</svg>
